<?xml version="1.0" encoding="UTF-8"?>
<!DOCTYPE svg PUBLIC "-//W3C//DTD SVG 1.1//EN" "http://www.w3.org/Graphics/SVG/1.1/DTD/svg11.dtd">
<svg xmlns="http://www.w3.org/2000/svg" version="1.1" width="1137px" height="280px" style="shape-rendering:geometricPrecision; text-rendering:geometricPrecision; image-rendering:optimizeQuality; fill-rule:evenodd; clip-rule:evenodd" xmlns:xlink="http://www.w3.org/1999/xlink">
<g><path style="opacity:1" fill="#010101" d="M 38.5,7.5 C 48.6996,7.29664 51.1996,11.63 46,20.5C 33.6328,33.0383 31.2995,47.3716 39,63.5C 46.1128,76.6404 56.6128,85.9737 70.5,91.5C 71.1667,91.1667 71.8333,90.8333 72.5,90.5C 80.9821,68.1921 94.3154,49.3588 112.5,34C 131.085,21.652 150.418,20.3186 170.5,30C 182.31,39.9771 186.143,52.4771 182,67.5C 173.999,87.5973 159.499,100.431 138.5,106C 133.878,107.207 129.211,108.207 124.5,109C 114.256,109.179 104.09,109.679 94,110.5C 83.2318,145.441 79.5651,181.108 83,217.5C 84.3747,230.629 88.7081,242.629 96,253.5C 104.73,262.169 115.23,265.003 127.5,262C 142.351,257.815 152.851,248.649 159,234.5C 164.618,220.928 165.951,206.928 163,192.5C 156.308,178.412 147.474,176.912 136.5,188C 134.866,188.494 133.199,188.66 131.5,188.5C 132.863,181.301 137.197,176.801 144.5,175C 159.563,173.711 168.73,180.544 172,195.5C 176.272,223.439 167.772,246.606 146.5,265C 124.007,277.957 102.341,276.623 81.5,261C 69.6491,248.466 62.1491,233.633 59,216.5C 52.5854,178.308 55.4187,140.808 67.5,104C 65.1081,101.289 62.1081,99.2889 58.5,98C 26.2488,77.1585 17.4154,48.9918 32,13.5C 33.914,11.1435 36.0807,9.14354 38.5,7.5 Z M 147.5,35.5 C 166.019,33.5187 174.519,41.852 173,60.5C 167.462,79.7037 154.962,91.8703 135.5,97C 123.648,100.359 111.648,101.192 99.5,99.5C 104.618,79.1131 114.618,61.2797 129.5,46C 135.136,41.6889 141.136,38.1889 147.5,35.5 Z"/></g>
<g><path style="opacity:1" fill="#010101" d="M 517.5,53.5 C 522.511,53.3341 527.511,53.5007 532.5,54C 534.329,54.2735 535.829,55.1068 537,56.5C 535.605,69.4428 534.439,82.4428 533.5,95.5C 548.87,93.3273 564.203,90.8273 579.5,88C 594.913,85.6907 610.247,86.0241 625.5,89C 630.146,90.1453 634.146,92.3119 637.5,95.5C 636.868,97.9647 635.368,99.6314 633,100.5C 630.531,98.3485 627.698,96.8485 624.5,96C 609.292,92.3028 593.959,91.9694 578.5,95C 563.211,97.8249 547.877,100.325 532.5,102.5C 526.274,145.609 523.44,188.942 524,232.5C 524.346,235.576 525.012,238.576 526,241.5C 526.739,242.574 527.739,243.241 529,243.5C 531.281,242.224 533.281,240.557 535,238.5C 546.315,218.209 553.315,196.543 556,173.5C 559.138,161.377 565.638,151.543 575.5,144C 585.899,138.242 596.232,138.242 606.5,144C 612.311,149.835 612.645,155.835 607.5,162C 606.167,162.667 604.833,162.667 603.5,162C 601.943,158.022 601.11,153.855 601,149.5C 597.974,146.136 594.474,145.636 590.5,148C 585.077,154.923 581.577,162.756 580,171.5C 576.716,187.007 575.716,202.674 577,218.5C 577.826,223.994 579.993,228.828 583.5,233C 589.497,234.769 594.33,232.936 598,227.5C 603.343,218.642 607.176,209.142 609.5,199C 601.645,190.722 599.811,181.222 604,170.5C 607.549,165.023 611.715,164.357 616.5,168.5C 619.899,175.635 620.232,182.968 617.5,190.5C 617.556,191.737 618.056,192.737 619,193.5C 626.526,190.643 632.193,185.643 636,178.5C 638.864,173.609 641.03,168.442 642.5,163C 638.49,152.757 637.323,142.257 639,131.5C 640.323,123.849 644.657,119.182 652,117.5C 658.4,118.26 660.9,121.927 659.5,128.5C 658.365,138.042 656.532,147.376 654,156.5C 667.67,168.491 678.67,182.491 687,198.5C 690.619,208.545 691.952,218.878 691,229.5C 684.76,250.041 670.926,259.208 649.5,257C 641.808,253.977 636.975,248.477 635,240.5C 633.237,231.415 634.903,223.082 640,215.5C 646.181,211.228 650.347,212.728 652.5,220C 649.789,225.382 646.289,230.215 642,234.5C 640.994,244.169 645.327,249.836 655,251.5C 662.624,248.873 666.957,243.54 668,235.5C 668.811,227.711 668.144,220.044 666,212.5C 660.662,198.158 653.996,184.492 646,171.5C 641.404,182.897 633.904,191.731 623.5,198C 620.883,198.822 618.216,199.322 615.5,199.5C 613.352,210.443 609.519,220.776 604,230.5C 595.066,244.928 583.232,248.094 568.5,240C 561.187,232.21 556.354,223.043 554,212.5C 549.537,226.934 542.37,239.767 532.5,251C 519.987,255.56 511.487,251.394 507,238.5C 502.993,225.113 500.659,211.447 500,197.5C 495.041,214.044 488.708,230.044 481,245.5C 472.987,259.462 462.987,261.129 451,250.5C 445.692,239.295 443.192,227.462 443.5,215C 444.775,194.804 446.442,174.637 448.5,154.5C 448.333,151.833 448.167,149.167 448,146.5C 446.573,144.213 444.739,143.88 442.5,145.5C 434.167,157.165 427.667,169.832 423,183.5C 419.469,193.092 416.136,202.759 413,212.5C 412.75,221.773 411.917,230.94 410.5,240C 403.46,242.076 396.46,241.909 389.5,239.5C 388.851,223.509 388.685,207.509 389,191.5C 383.498,202.996 377.165,213.996 370,224.5C 363.146,233.003 354.646,239.17 344.5,243C 328.789,245.99 316.622,240.824 308,227.5C 304.19,219.4 301.19,211.067 299,202.5C 294.64,215.245 289.306,227.579 283,239.5C 280.588,243.916 277.422,247.749 273.5,251C 261.397,255.949 253.23,252.115 249,239.5C 246.126,227.689 244.459,215.689 244,203.5C 240.045,212.707 235.712,221.707 231,230.5C 227.373,236.131 222.54,240.298 216.5,243C 209.693,244.175 204.193,242.008 200,236.5C 193.572,223.107 190.738,208.94 191.5,194C 191.796,176.336 193.629,158.836 197,141.5C 203.625,137.778 210.458,137.611 217.5,141C 219.18,141.347 220.18,142.347 220.5,144C 214.654,171.93 212.488,200.096 214,228.5C 214.427,231.942 216.26,233.442 219.5,233C 225.376,226.76 229.876,219.594 233,211.5C 241.399,191.974 247.565,171.807 251.5,151C 259.129,148.551 266.295,149.384 273,153.5C 270.581,172.777 268.247,192.11 266,211.5C 265.333,220.5 265.333,229.5 266,238.5C 266.427,241.942 268.26,243.442 271.5,243C 275.866,238.439 279.366,233.272 282,227.5C 291.258,205.726 298.925,183.393 305,160.5C 314.199,136.318 331.032,127.818 355.5,135C 362.308,140.67 364.475,147.836 362,156.5C 355.315,172.931 343.149,182.264 325.5,184.5C 321.929,199.72 323.429,214.387 330,228.5C 338.465,235.09 346.965,234.923 355.5,228C 378.452,205.432 390.785,178.099 392.5,146C 397.382,144.445 402.382,144.112 407.5,145C 409.676,145.163 411.509,145.996 413,147.5C 413.333,160.833 413.667,174.167 414,187.5C 419.396,172.043 426.396,157.376 435,143.5C 438.604,138.545 443.271,135.212 449,133.5C 461.612,135.79 468.279,143.457 469,156.5C 469.632,162.155 470.132,167.822 470.5,173.5C 469.283,193.719 467.616,213.885 465.5,234C 466.185,236.795 466.685,239.628 467,242.5C 469.705,245.901 472.372,245.567 475,241.5C 477.588,237.326 479.921,232.993 482,228.5C 489.536,209.226 495.869,189.559 501,169.5C 502.257,148.443 504.091,127.443 506.5,106.5C 499.119,106.686 491.786,106.186 484.5,105C 466.625,99.7664 459.625,87.9331 463.5,69.5C 466.291,67.9602 468.791,68.2936 471,70.5C 469.816,87.0009 477.316,96.5009 493.5,99C 497.833,99.6667 502.167,99.6667 506.5,99C 507,98.5 507.5,98 508,97.5C 509.814,84.1383 511.814,70.8049 514,57.5C 514.69,55.6498 515.856,54.3164 517.5,53.5 Z M 343.5,138.5 C 345.467,138.261 347.301,138.594 349,139.5C 352.957,157.946 345.957,170.613 328,177.5C 328.576,166.071 331.909,155.071 338,144.5C 339.36,141.977 341.193,139.977 343.5,138.5 Z"/></g>
<g><path style="opacity:0.944" fill="#000000" d="M 762.5,102.5 C 783.489,100.993 801.322,107.66 816,122.5C 818.918,126.08 821.418,129.913 823.5,134C 817.941,139.209 811.775,143.709 805,147.5C 793.097,128.977 776.263,122.143 754.5,127C 736.059,135.86 725.725,150.527 723.5,171C 722.642,193.719 731.976,211.053 751.5,223C 772.984,229.683 791.151,224.517 806,207.5C 807.379,202.964 807.879,198.297 807.5,193.5C 797.5,193.5 787.5,193.5 777.5,193.5C 777.5,187.167 777.5,180.833 777.5,174.5C 794.5,174.5 811.5,174.5 828.5,174.5C 828.5,199.167 828.5,223.833 828.5,248.5C 821.5,248.5 814.5,248.5 807.5,248.5C 807.666,242.824 807.499,237.157 807,231.5C 787.099,249.814 764.599,253.647 739.5,243C 712.931,228.012 699.264,205.512 698.5,175.5C 698.987,143.45 713.987,120.616 743.5,107C 749.785,104.677 756.118,103.177 762.5,102.5 Z"/></g>
<g><path style="opacity:0.956" fill="#000000" d="M 853.5,103.5 C 877.219,103.04 900.886,103.54 924.5,105C 945.583,112.913 956.917,128.079 958.5,150.5C 958.531,171.956 948.864,187.123 929.5,196C 926.833,196.667 924.167,197.333 921.5,198C 906.837,198.5 892.17,198.667 877.5,198.5C 877.5,215.167 877.5,231.833 877.5,248.5C 869.5,248.5 861.5,248.5 853.5,248.5C 853.5,200.167 853.5,151.833 853.5,103.5 Z M 877.5,126.5 C 891.906,126.051 906.239,126.551 920.5,128C 935.045,139.005 937.545,152.505 928,168.5C 925.204,172.636 921.371,175.136 916.5,176C 903.504,176.5 890.504,176.667 877.5,176.5C 877.5,159.833 877.5,143.167 877.5,126.5 Z"/></g>
<g><path style="opacity:0.929" fill="#000000" d="M 965.5,103.5 C 1004.83,103.333 1044.17,103.5 1083.5,104C 1084.48,111.413 1084.81,118.913 1084.5,126.5C 1068.83,126.5 1053.17,126.5 1037.5,126.5C 1037.5,167.167 1037.5,207.833 1037.5,248.5C 1029.17,248.5 1020.83,248.5 1012.5,248.5C 1012.5,207.833 1012.5,167.167 1012.5,126.5C 996.833,126.5 981.167,126.5 965.5,126.5C 965.5,118.833 965.5,111.167 965.5,103.5 Z"/></g>
</svg>
